<?xml version="1.0" encoding="utf-8"?>
<!-- Generator: Adobe Illustrator 22.0.0, SVG Export Plug-In . SVG Version: 6.00 Build 0)  -->
<svg version="1.1" id="Camada_1" xmlns="http://www.w3.org/2000/svg" xmlns:xlink="http://www.w3.org/1999/xlink" x="0px" y="0px"
	 viewBox="0 0 46.7 46.7" style="enable-background:new 0 0 46.7 46.7;" xml:space="preserve">
<style type="text/css">
	.st0{fill:#FFFFFF;}
</style>
<title>Close 7.11</title>
<desc>Created with Sketch.</desc>
<g>
	<g>
		<path class="st0" d="M45.5,7.2c1.6-1.6,1.6-4.1,0-5.6l-0.4-0.4c-1.6-1.6-4.1-1.6-5.6,0L24.1,16.6c-0.4,0.4-1,0.4-1.4,0L7.2,1.2
			c-1.6-1.6-4.1-1.6-5.6,0L1.2,1.5c-1.6,1.6-1.6,4.1,0,5.6l15.5,15.5c0.4,0.4,0.4,1,0,1.4L1.2,39.5c-1.6,1.6-1.6,4.1,0,5.6l0.4,0.4
			c1.6,1.6,4.1,1.6,5.6,0L22.7,30c0.4-0.4,1-0.4,1.4,0l15.5,15.5c1.6,1.6,4.1,1.6,5.6,0l0.4-0.4c1.6-1.6,1.6-4.1,0-5.6L30.1,24.1
			c-0.4-0.4-0.4-1,0-1.4L45.5,7.2z"/>
	</g>
</g>
</svg>
