<?xml version="1.0" encoding="utf-8"?>
<!-- Generator: Adobe Illustrator 22.0.0, SVG Export Plug-In . SVG Version: 6.00 Build 0)  -->
<svg version="1.1" id="Camada_1" xmlns="http://www.w3.org/2000/svg" xmlns:xlink="http://www.w3.org/1999/xlink" x="0px" y="0px"
	 viewBox="0 0 30.2 30.1" style="enable-background:new 0 0 30.2 30.1;" xml:space="preserve">
<style type="text/css">
	.st0{fill:none;}
	.st1{fill:#0366D6;}
</style>
<title>send</title>
<g>
	<g>
		<rect x="-8.9" y="-9" class="st0" width="48" height="48"/>
		<path class="st1" d="M27.7,1.5c0.3,0,0.7,0.2,0.8,0.5c0.2,0.3,0.2,0.6,0.1,0.9L18,27.9c-0.2,0.5-0.7,0.8-1.3,0.6
			c-0.3-0.1-0.5-0.3-0.6-0.5l-4.6-8c-0.3-0.6-0.8-1.1-1.4-1.5l-8-4.6c-0.3-0.2-0.5-0.5-0.5-0.9s0.3-0.7,0.6-0.9L27.3,1.6
			C27.4,1.6,27.6,1.5,27.7,1.5 M27.7,0c-0.3,0-0.7,0.1-1,0.2L1.6,10.8c-1.3,0.5-1.9,2-1.3,3.3c0.2,0.5,0.6,0.9,1.1,1.2l8,4.6
			c0.4,0.2,0.7,0.5,0.9,0.9l4.6,8c0.7,1.2,2.2,1.6,3.4,0.9c0.5-0.3,0.8-0.7,1.1-1.2L30,3.5c0.5-1.3-0.1-2.7-1.3-3.3
			C28.3,0.1,28,0,27.7,0z"/>
		<path class="st1" d="M13.5,17.4c-0.2,0-0.4-0.1-0.5-0.2c-0.3-0.3-0.3-0.8,0-1.1l8.2-8.2c0.3-0.3,0.8-0.3,1.1,0
			c0.3,0.3,0.3,0.8,0,1l0,0L14,17.2C13.9,17.3,13.7,17.4,13.5,17.4z"/>
	</g>
</g>
</svg>
